<svg width="48" height="48" viewBox="0 0 48 48" fill="none" xmlns="http://www.w3.org/2000/svg">
<mask id="mask0_275_1130" style="mask-type:alpha" maskUnits="userSpaceOnUse" x="0" y="0" width="48" height="48">
<rect width="48" height="48" fill="#D9D9D9"/>
</mask>
<g mask="url(#mask0_275_1130)">
<path d="M12 38C11.5333 38 11.125 37.825 10.775 37.475C10.425 37.125 10.25 36.7167 10.25 36.25C10.25 35.7833 10.425 35.375 10.775 35.025C11.125 34.675 11.5333 34.5 12 34.5C12.4667 34.5 12.875 34.675 13.225 35.025C13.575 35.375 13.75 35.7833 13.75 36.25C13.75 36.7167 13.575 37.125 13.225 37.475C12.875 37.825 12.4667 38 12 38ZM36 38C35.5333 38 35.125 37.825 34.775 37.475C34.425 37.125 34.25 36.7167 34.25 36.25C34.25 35.7833 34.425 35.375 34.775 35.025C35.125 34.675 35.5333 34.5 36 34.5C36.4667 34.5 36.875 34.675 37.225 35.025C37.575 35.375 37.75 35.7833 37.75 36.25C37.75 36.7167 37.575 37.125 37.225 37.475C36.875 37.825 36.4667 38 36 38ZM18 46C17.5333 46 17.125 45.825 16.775 45.475C16.425 45.125 16.25 44.7167 16.25 44.25C16.25 43.7833 16.425 43.375 16.775 43.025C17.125 42.675 17.5333 42.5 18 42.5C18.4667 42.5 18.875 42.675 19.225 43.025C19.575 43.375 19.75 43.7833 19.75 44.25C19.75 44.7167 19.575 45.125 19.225 45.475C18.875 45.825 18.4667 46 18 46ZM24 38C23.5333 38 23.125 37.825 22.775 37.475C22.425 37.125 22.25 36.7167 22.25 36.25C22.25 35.7833 22.425 35.375 22.775 35.025C23.125 34.675 23.5333 34.5 24 34.5C24.4667 34.5 24.875 34.675 25.225 35.025C25.575 35.375 25.75 35.7833 25.75 36.25C25.75 36.7167 25.575 37.125 25.225 37.475C24.875 37.825 24.4667 38 24 38ZM30 46C29.5333 46 29.125 45.825 28.775 45.475C28.425 45.125 28.25 44.7167 28.25 44.25C28.25 43.7833 28.425 43.375 28.775 43.025C29.125 42.675 29.5333 42.5 30 42.5C30.4667 42.5 30.875 42.675 31.225 43.025C31.575 43.375 31.75 43.7833 31.75 44.25C31.75 44.7167 31.575 45.125 31.225 45.475C30.875 45.825 30.4667 46 30 46ZM14.5 31C11.6047 31 9.13083 29.9747 7.0785 27.924C5.02617 25.8733 4 23.4015 4 20.5085C4 17.8695 4.94167 15.5167 6.825 13.45C8.70833 11.3833 11.05 10.25 13.85 10.05C14.9167 8.18333 16.325 6.70833 18.075 5.625C19.825 4.54167 21.807 4 24.021 4C27.0403 4 29.575 4.95833 31.625 6.875C33.675 8.79167 34.9333 11.1667 35.4 14C38.0333 14.1333 40.125 15.025 41.675 16.675C43.225 18.325 44 20.2603 44 22.481C44 24.827 43.1737 26.8333 41.521 28.5C39.868 30.1667 37.861 31 35.5 31H14.5ZM14.5 28H35.5C37.04 28 38.3417 27.4583 39.405 26.375C40.4683 25.2917 41 23.9917 41 22.475C41 20.9583 40.4683 19.6667 39.405 18.6C38.3417 17.5333 37.04 17 35.5 17H32.5V15.5C32.5 13.1333 31.675 11.125 30.025 9.475C28.375 7.825 26.3702 7 24.0105 7C22.2945 7 20.7305 7.45833 19.3185 8.375C17.9062 9.29167 16.8667 10.5333 16.2 12.1L15.8 13H14.4C12.3333 13.0667 10.5833 13.8232 9.15 15.2695C7.71667 16.7162 7 18.4573 7 20.493C7 22.5643 7.73217 24.3333 9.1965 25.8C10.6608 27.2667 12.4287 28 14.5 28Z" fill="#1C1B1F"/>
</g>
</svg>
