<svg width="48" height="48" viewBox="0 0 48 48" fill="none" xmlns="http://www.w3.org/2000/svg">
<mask id="mask0_275_1122" style="mask-type:alpha" maskUnits="userSpaceOnUse" x="0" y="0" width="48" height="48">
<rect width="48" height="48" fill="#D9D9D9"/>
</mask>
<g mask="url(#mask0_275_1122)">
<path d="M36 37.75C35.5333 37.75 35.125 37.575 34.775 37.225C34.425 36.875 34.25 36.4667 34.25 36C34.25 35.5333 34.425 35.125 34.775 34.775C35.125 34.425 35.5333 34.25 36 34.25C36.4667 34.25 36.875 34.425 37.225 34.775C37.575 35.125 37.75 35.5333 37.75 36C37.75 36.4667 37.575 36.875 37.225 37.225C36.875 37.575 36.4667 37.75 36 37.75ZM14 44C13.5333 44 13.125 43.825 12.775 43.475C12.425 43.125 12.25 42.7167 12.25 42.25C12.25 41.7833 12.425 41.375 12.775 41.025C13.125 40.675 13.5333 40.5 14 40.5C14.4667 40.5 14.875 40.675 15.225 41.025C15.575 41.375 15.75 41.7833 15.75 42.25C15.75 42.7167 15.575 43.125 15.225 43.475C14.875 43.825 14.4667 44 14 44ZM12 37.75C11.5333 37.75 11.125 37.575 10.775 37.225C10.425 36.875 10.25 36.4667 10.25 36C10.25 35.5333 10.425 35.125 10.775 34.775C11.125 34.425 11.5333 34.25 12 34.25H30C30.4667 34.25 30.875 34.425 31.225 34.775C31.575 35.125 31.75 35.5333 31.75 36C31.75 36.4667 31.575 36.875 31.225 37.225C30.875 37.575 30.4667 37.75 30 37.75H12ZM20 44C19.5333 44 19.125 43.825 18.775 43.475C18.425 43.125 18.25 42.7167 18.25 42.25C18.25 41.7833 18.425 41.375 18.775 41.025C19.125 40.675 19.5333 40.5 20 40.5H34C34.4667 40.5 34.875 40.675 35.225 41.025C35.575 41.375 35.75 41.7833 35.75 42.25C35.75 42.7167 35.575 43.125 35.225 43.475C34.875 43.825 34.4667 44 34 44H20ZM14.5 31C11.6047 31 9.13083 29.9747 7.0785 27.924C5.02617 25.8733 4 23.4015 4 20.5085C4 17.8695 4.94167 15.5167 6.825 13.45C8.70833 11.3833 11.05 10.25 13.85 10.05C14.9167 8.18333 16.325 6.70833 18.075 5.625C19.825 4.54167 21.807 4 24.021 4C27.0403 4 29.575 4.95833 31.625 6.875C33.675 8.79167 34.9333 11.1667 35.4 14C38.0333 14.1333 40.125 15.025 41.675 16.675C43.225 18.325 44 20.2603 44 22.481C44 24.827 43.1737 26.8333 41.521 28.5C39.868 30.1667 37.861 31 35.5 31H14.5ZM14.5 28H35.5C37.04 28 38.3417 27.4583 39.405 26.375C40.4683 25.2917 41 23.9917 41 22.475C41 20.9583 40.4683 19.6667 39.405 18.6C38.3417 17.5333 37.04 17 35.5 17H32.5V15.5C32.5 13.1333 31.675 11.125 30.025 9.475C28.375 7.825 26.3702 7 24.0105 7C22.2945 7 20.7305 7.45833 19.3185 8.375C17.9062 9.29167 16.8667 10.5333 16.2 12.1L15.8 13H14.4C12.3333 13.0667 10.5833 13.8232 9.15 15.2695C7.71667 16.7162 7 18.4573 7 20.493C7 22.5643 7.73217 24.3333 9.1965 25.8C10.6608 27.2667 12.4287 28 14.5 28Z" fill="#1C1B1F"/>
</g>
</svg>
