<svg width="48" height="48" viewBox="0 0 48 48" fill="none" xmlns="http://www.w3.org/2000/svg">
<mask id="mask0_275_1082" style="mask-type:alpha" maskUnits="userSpaceOnUse" x="0" y="0" width="48" height="48">
<rect width="48" height="48" fill="#D9D9D9"/>
</mask>
<g mask="url(#mask0_275_1082)">
<path d="M24.4995 46.31L21.8495 43.66L24.4995 41.01L27.1495 43.66L24.4995 46.31ZM17.5995 43.31L15.8495 41.56L21.3995 36.01L23.1495 37.76L17.5995 43.31ZM30.4995 40.31L27.8495 37.66L30.4995 35.01L33.1495 37.66L30.4995 40.31ZM12.4995 40.31L9.84951 37.66L12.4995 35.01L15.1495 37.66L12.4995 40.31ZM13.9995 31.41C11.1042 31.41 8.63035 30.3847 6.57801 28.334C4.52568 26.2834 3.49951 23.8115 3.49951 20.9185C3.49951 18.2795 4.44118 15.9267 6.32451 13.86C8.20785 11.7934 10.5495 10.66 13.3495 10.46C14.4162 8.59337 15.8245 7.11837 17.5745 6.03503C19.3245 4.9517 21.3065 4.41003 23.5205 4.41003C26.5398 4.41003 29.0745 5.36837 31.1245 7.28503C33.1745 9.2017 34.4328 11.5767 34.8995 14.41C37.5328 14.5434 39.6245 15.435 41.1745 17.085C42.7245 18.735 43.4995 20.6704 43.4995 22.891C43.4995 25.237 42.6732 27.2434 41.0205 28.91C39.3675 30.5767 37.3605 31.41 34.9995 31.41H13.9995ZM13.9995 28.41H34.9995C36.5395 28.41 37.8412 27.8684 38.9045 26.785C39.9678 25.7017 40.4995 24.4017 40.4995 22.885C40.4995 21.3684 39.9678 20.0767 38.9045 19.01C37.8412 17.9434 36.5395 17.41 34.9995 17.41H31.9995V15.91C31.9995 13.5434 31.1745 11.535 29.5245 9.88503C27.8745 8.23503 25.8697 7.41003 23.51 7.41003C21.794 7.41003 20.23 7.86837 18.818 8.78503C17.4057 9.7017 16.3662 10.9434 15.6995 12.51L15.2995 13.41H13.8995C11.8328 13.4767 10.0828 14.2332 8.64951 15.6795C7.21618 17.1262 6.49951 18.8674 6.49951 20.903C6.49951 22.9744 7.23168 24.7434 8.69601 26.21C10.1603 27.6767 11.9282 28.41 13.9995 28.41Z" fill="#1C1B1F"/>
<path d="M87.8491 63.1701L90.4991 65.8201L93.1491 63.1701L90.4991 60.5201L87.8491 63.1701Z" fill="#1C1B1F"/>
</g>
</svg>
