<svg width="48" height="48" viewBox="0 0 48 48" fill="none" xmlns="http://www.w3.org/2000/svg">
<path d="M11.5 34C8.6 34 6.125 32.975 4.075 30.925C2.025 28.875 1 26.4 1 23.5C1 20.8667 1.94167 18.5167 3.825 16.45C5.70833 14.3833 8.05 13.25 10.85 13.05C11.9167 11.1833 13.325 9.70833 15.075 8.625C16.825 7.54167 18.8 7 21 7C24.0333 7 26.575 7.95833 28.625 9.875C30.675 11.7917 31.9333 14.1667 32.4 17C35.0333 17.1333 37.125 18.025 38.675 19.675C40.225 21.325 41 23.2667 41 25.5C41 27.8333 40.175 29.8333 38.525 31.5C36.875 33.1667 34.8667 34 32.5 34H11.5ZM11.5 31H32.5C34.0333 31 35.3333 30.4583 36.4 29.375C37.4667 28.2917 38 27 38 25.5C38 23.9667 37.4667 22.6667 36.4 21.6C35.3333 20.5333 34.0333 20 32.5 20H29.5V18.5C29.5 16.1333 28.675 14.125 27.025 12.475C25.375 10.825 23.3667 10 21 10C19.3 10 17.7417 10.4583 16.325 11.375C14.9083 12.2917 13.8667 13.5333 13.2 15.1L12.8 16H11.4C9.33333 16.0667 7.58333 16.825 6.15 18.275C4.71667 19.725 4 21.4667 4 23.5C4 25.5667 4.73333 27.3333 6.2 28.8C7.66667 30.2667 9.43333 31 11.5 31Z" fill="#1C1B1F"/>
<path d="M20.456 46.6586C20.7679 46.8749 21.1194 46.9885 21.5106 46.9993C21.9018 47.01 22.2421 46.9042 22.5316 46.6818C22.821 46.4593 22.9868 45.8 23.0009 45.5V40.5C23.0149 40.2 22.8651 39.5578 22.5533 39.3414C22.2415 39.125 21.8899 39.0115 21.4987 39.0007C21.1075 38.9899 20.7636 39.1013 20.4669 39.3349C20.1703 39.5684 20.0149 40.2 20.0009 40.5L20.0009 45.5C19.9868 45.8 20.1442 46.4422 20.456 46.6586Z" fill="#1C1B1F"/>
<path d="M32.456 44.6586C32.7679 44.8749 33.1194 44.9885 33.5106 44.9993C33.9018 45.01 34.2421 44.9042 34.5316 44.6818C34.821 44.4593 34.9868 43.8 35.0009 43.5V38.5C35.0149 38.2 34.8651 37.5578 34.5533 37.3414C34.2415 37.125 33.8899 37.0115 33.4987 37.0007C33.1075 36.9899 32.7636 37.1013 32.4669 37.3349C32.1703 37.5684 32.0149 38.2 32.0009 38.5L32.0009 43.5C31.9868 43.8 32.1442 44.4422 32.456 44.6586Z" fill="#1C1B1F"/>
<path d="M8.45605 44.6586C8.76787 44.8749 9.11938 44.9885 9.51059 44.9993C9.90179 45.01 10.2421 44.9042 10.5316 44.6818C10.821 44.4593 10.9868 43.8 11.0009 43.5V38.5C11.0149 38.2 10.8651 37.5578 10.5533 37.3414C10.2415 37.125 9.88995 37.0115 9.49874 37.0007C9.10754 36.9899 8.7636 37.1013 8.46693 37.3349C8.17026 37.5684 8.01491 38.2 8.00086 38.5L8.00085 43.5C7.98681 43.8 8.14422 44.4422 8.45605 44.6586Z" fill="#1C1B1F"/>
<path d="M29.9091 6.45455V1H32.0909V6.45455H29.9091ZM39.2182 10.3091L37.6909 8.78182L41.5454 4.89091L43.0727 6.45455L39.2182 10.3091ZM41.5454 18.0909V15.9091H47V18.0909H41.5454ZM22.7454 10.2727L18.9272 6.45455L20.4545 4.92727L24.3091 8.78182L22.7454 10.2727ZM32.5 19.5C30.0758 19.5 32.0909 19 30 19C29.679 17 29.679 16.1143 29.679 13.6901C29.679 11.2658 26 12 24.8182 10.8182C26.5151 9.12121 28.5757 8.27273 31 8.27273C33.4242 8.27273 35.4848 9.12121 37.1818 10.8182C38.8788 12.5152 39.7272 14.5758 39.7272 17C39.7272 19.4242 39.2182 21 38.5 22C36.803 23.697 35.1997 17.7059 32.5 19.5ZM34.5 17.5C36.3182 17.5 35.2273 20.2727 36.5 19C37.1818 19 37.5454 18.8182 37.5454 17C37.5454 15.1818 36.9091 13.6364 35.6363 12.3636C34.3636 11.0909 32.8182 10.4545 31 10.4545C29.1818 10.4545 28.2727 10.7273 27 12C28 13.6901 29.9091 13.1818 29.9091 15C29.9091 16.8182 31.2273 16.2273 32.5 17.5C33.7727 18.7727 32.6818 17.5 34.5 17.5Z" fill="#1C1B1F"/>
<path d="M15 38L17 40L15 42L13 40L15 38Z" fill="#1C1B1F"/>
<path d="M28 36L30 38L28 40L26 38L28 36Z" fill="#1C1B1F"/>
</svg>
