<svg width="48" height="48" viewBox="0 0 48 48" fill="none" xmlns="http://www.w3.org/2000/svg">
<mask id="mask0_295_1118" style="mask-type:alpha" maskUnits="userSpaceOnUse" x="0" y="0" width="48" height="48">
<rect width="48" height="48" fill="#D9D9D9"/>
</mask>
<g mask="url(#mask0_295_1118)">
<path d="M14.5 31C11.6 31 9.125 29.975 7.075 27.925C5.025 25.875 4 23.4 4 20.5C4 17.8667 4.94167 15.5167 6.825 13.45C8.70833 11.3833 11.05 10.25 13.85 10.05C14.9167 8.18333 16.325 6.70833 18.075 5.625C19.825 4.54167 21.8 4 24 4C27.0333 4 29.575 4.95833 31.625 6.875C33.675 8.79167 34.9333 11.1667 35.4 14C38.0333 14.1333 40.125 15.025 41.675 16.675C43.225 18.325 44 20.2667 44 22.5C44 24.8333 43.175 26.8333 41.525 28.5C39.875 30.1667 37.8667 31 35.5 31H14.5ZM14.5 28H35.5C37.0333 28 38.3333 27.4583 39.4 26.375C40.4667 25.2917 41 24 41 22.5C41 20.9667 40.4667 19.6667 39.4 18.6C38.3333 17.5333 37.0333 17 35.5 17H32.5V15.5C32.5 13.1333 31.675 11.125 30.025 9.475C28.375 7.825 26.3667 7 24 7C22.3 7 20.7417 7.45833 19.325 8.375C17.9083 9.29167 16.8667 10.5333 16.2 12.1L15.8 13H14.4C12.3333 13.0667 10.5833 13.825 9.15 15.275C7.71667 16.725 7 18.4667 7 20.5C7 22.5667 7.73333 24.3333 9.2 25.8C10.6667 27.2667 12.4333 28 14.5 28Z" fill="#1C1B1F"/>
</g>
<path d="M29.0316 32.248C28.6632 32.4448 28.288 32.4665 27.906 32.3132C27.524 32.1598 27.2346 31.899 27.0378 31.5306L26.3813 28.827C26.2178 28.4589 26.7612 29.2094 26.8812 28.8271C27.0012 28.4448 27.0128 28.5239 27.3812 28.3271C27.7494 28.1636 27.507 28.2069 27.906 28.327C28.305 28.4472 28.4792 29.8358 28.676 30.2042H29.7495C29.9129 30.5723 29.9262 30.9641 29.7892 31.3796C29.6523 31.7951 29.3997 32.0846 29.0316 32.248Z" fill="#1C1B1F"/>
<path d="M14.1531 33.8617C13.7834 34.056 13.4238 34.109 13.0743 34.0208C12.7247 33.9326 12.4736 33.7484 12.3208 33.4683L10.0809 28.8616C9.95991 28.5787 9.97462 28.2765 10.1251 27.9553C10.2755 27.6341 10.5356 27.3763 10.9052 27.182C11.2714 27.0147 11.6312 27.8956 12 27.9553C12.3688 28.0151 12.6187 27.8324 12.7715 28.1125L15.0301 32.1371C15.1511 32.4201 15.1268 32.7364 14.957 33.0862C14.7873 33.4359 14.5193 33.6944 14.1531 33.8617Z" fill="#1C1B1F"/>
<path d="M19.5073 44.6004C19.139 44.7975 18.762 44.8155 18.3761 44.6545C17.9903 44.4935 17.6963 44.2235 17.4943 43.8447L14.4632 37.6509C14.2947 37.2728 14.2686 36.8889 14.385 36.4994C14.5015 36.1099 14.7438 35.8166 15.112 35.6195C15.4804 35.4565 15.8658 35.4386 16.2683 35.5659C16.6709 35.6932 16.9731 35.9463 17.1751 36.3251L20.2063 42.5189C20.3748 42.897 20.3925 43.2977 20.2594 43.721C20.1263 44.1443 19.8756 44.4374 19.5073 44.6004Z" fill="#1C1B1F"/>
<path d="M23.5408 37.0023C23.1724 37.1991 22.7974 37.2213 22.4159 37.069C22.0344 36.9167 21.7456 36.657 21.5495 36.29L18.613 30.2861C18.4502 29.9194 18.4291 29.5453 18.5495 29.1639C18.67 28.7826 18.9145 28.4935 19.2829 28.2968C19.651 28.1333 20.0343 28.1111 20.4328 28.2303C20.8313 28.3495 21.1286 28.5927 21.3247 28.9597L24.2612 34.9635C24.424 35.3303 24.4366 35.7209 24.2991 36.1354C24.1617 36.5498 23.9089 36.8388 23.5408 37.0023Z" fill="#1C1B1F"/>
<path d="M39.6395 37.915C39.2716 38.1128 38.8899 38.1216 38.4945 37.9414C38.0991 37.7612 37.7939 37.4686 37.5789 37.0637L34.3391 30.4516C34.1581 30.0483 34.1213 29.6429 34.2288 29.2354C34.3362 28.8279 34.5739 28.5252 34.9417 28.3274C35.3106 28.1655 35.7008 28.1571 36.1122 28.3022C36.5236 28.4473 36.8368 28.7223 37.0518 29.1272L40.2916 35.7393C40.4726 36.1426 40.5014 36.5656 40.3779 37.0082C40.2545 37.4508 40.0083 37.7531 39.6395 37.915Z" fill="#1C1B1F"/>
<path d="M35.6057 45.5127C35.2391 45.713 34.8417 45.6902 34.4135 45.4443C33.9853 45.1983 33.6415 44.8283 33.382 44.3343L29.4278 36.2892C29.204 35.8 29.1304 35.3208 29.2071 34.8516C29.2838 34.3825 29.5055 34.0477 29.8721 33.8474C30.2429 33.6893 30.6492 33.7134 31.091 33.9195C31.5329 34.1256 31.8835 34.4756 32.1429 34.9697L36.0972 43.0148C36.321 43.504 36.3878 44.0031 36.2974 44.5121C36.2071 45.0211 35.9765 45.3547 35.6057 45.5127Z" fill="#1C1B1F"/>
<path d="M27.5568 45.0572C27.1869 45.251 26.8302 45.3099 26.4867 45.2338C26.1432 45.1576 25.8992 44.9878 25.7546 44.7242L23.6465 40.3817C23.5334 40.1146 23.5549 39.8261 23.711 39.5162C23.8671 39.2063 24.1301 38.9545 24.5 38.7606C24.8658 38.5927 25.2304 38.5329 25.5936 38.5814C25.9568 38.6299 26.2107 38.786 26.3553 39.0496L28.4634 43.392C28.5766 43.6591 28.5452 43.9615 28.3694 44.299C28.1935 44.6365 27.9227 44.8892 27.5568 45.0572Z" fill="#1C1B1F"/>
<path d="M43.6555 45.9699C43.2856 46.1637 42.9289 46.2226 42.5854 46.1465C42.2419 46.0703 41.9979 45.9005 41.8533 45.6369L39.7451 41.2944C39.632 41.0273 39.6535 40.7388 39.8097 40.4289C39.9658 40.1191 40.2288 39.8672 40.5986 39.6733C40.9645 39.5054 41.329 39.4456 41.6923 39.4941C42.0555 39.5426 42.3094 39.6987 42.454 39.9623L44.5621 44.3047C44.6752 44.5718 44.6439 44.8742 44.468 45.2117C44.2922 45.5492 44.0213 45.8019 43.6555 45.9699Z" fill="#1C1B1F"/>
</svg>
