<svg width="48" height="48" viewBox="0 0 48 48" fill="none" xmlns="http://www.w3.org/2000/svg">
<mask id="mask0_297_1023" style="mask-type:alpha" maskUnits="userSpaceOnUse" x="0" y="0" width="48" height="48">
<rect width="48" height="48" fill="#D9D9D9"/>
</mask>
<g mask="url(#mask0_297_1023)">
<path d="M14.5 31C11.6047 31 9.13083 29.9747 7.0785 27.924C5.02617 25.8733 4 23.4015 4 20.5085C4 17.8695 4.94167 15.5167 6.825 13.45C8.70833 11.3833 11.05 10.25 13.85 10.05C14.9167 8.18333 16.325 6.70833 18.075 5.625C19.825 4.54167 21.807 4 24.021 4C27.0403 4 29.575 4.95833 31.625 6.875C33.675 8.79167 34.9333 11.1667 35.4 14C38.0333 14.1333 40.125 15.025 41.675 16.675C43.225 18.325 44 20.2603 44 22.481C44 24.827 43.1737 26.8333 41.521 28.5C39.868 30.1667 37.861 31 35.5 31H14.5ZM14.5 28H35.5C37.04 28 38.3417 27.4583 39.405 26.375C40.4683 25.2917 41 23.9917 41 22.475C41 20.9583 40.4683 19.6667 39.405 18.6C38.3417 17.5333 37.04 17 35.5 17H32.5V15.5C32.5 13.1333 31.675 11.125 30.025 9.475C28.375 7.825 26.3702 7 24.0105 7C22.2945 7 20.7305 7.45833 19.3185 8.375C17.9062 9.29167 16.8667 10.5333 16.2 12.1L15.8 13H14.4C12.3333 13.0667 10.5833 13.8232 9.15 15.2695C7.71667 16.7162 7 18.4573 7 20.493C7 22.5643 7.73217 24.3333 9.1965 25.8C10.6608 27.2667 12.4287 28 14.5 28Z" fill="#1C1B1F"/>
</g>
<path d="M11 37C10.4333 37 9.95833 36.8083 9.575 36.425C9.19167 36.0417 9 35.5667 9 35C9 34.4333 9.19167 33.9583 9.575 33.575C9.95833 33.1917 10.4333 33 11 33C11.5667 33 12.0417 33.1917 12.425 33.575C12.8083 33.9583 13 34.4333 13 35C13 35.5667 12.8083 36.0417 12.425 36.425C12.0417 36.8083 11.5667 37 11 37ZM23.5 37C22.9333 37 22.4583 36.8083 22.075 36.425C21.6917 36.0417 21.5 35.5667 21.5 35C21.5 34.4333 21.6917 33.9583 22.075 33.575C22.4583 33.1917 22.9333 33 23.5 33C24.0667 33 24.5417 33.1917 24.925 33.575C25.3083 33.9583 25.5 34.4333 25.5 35C25.5 35.5667 25.3083 36.0417 24.925 36.425C24.5417 36.8083 24.0667 37 23.5 37ZM36 37C35.4333 37 34.9583 36.8083 34.575 36.425C34.1917 36.0417 34 35.5667 34 35C34 34.4333 34.1917 33.9583 34.575 33.575C34.9583 33.1917 35.4333 33 36 33C36.5667 33 37.0417 33.1917 37.425 33.575C37.8083 33.9583 38 34.4333 38 35C38 35.5667 37.8083 36.0417 37.425 36.425C37.0417 36.8083 36.5667 37 36 37Z" fill="#1C1B1F"/>
<path d="M11 42C10.4333 42 9.95833 41.8083 9.575 41.425C9.19167 41.0417 9 40.5667 9 40C9 39.4333 9.19167 38.9583 9.575 38.575C9.95833 38.1917 10.4333 38 11 38C11.5667 38 12.0417 38.1917 12.425 38.575C12.8083 38.9583 13 39.4333 13 40C13 40.5667 12.8083 41.0417 12.425 41.425C12.0417 41.8083 11.5667 42 11 42ZM23.5 42C22.9333 42 22.4583 41.8083 22.075 41.425C21.6917 41.0417 21.5 40.5667 21.5 40C21.5 39.4333 21.6917 38.9583 22.075 38.575C22.4583 38.1917 22.9333 38 23.5 38C24.0667 38 24.5417 38.1917 24.925 38.575C25.3083 38.9583 25.5 39.4333 25.5 40C25.5 40.5667 25.3083 41.0417 24.925 41.425C24.5417 41.8083 24.0667 42 23.5 42ZM36 42C35.4333 42 34.9583 41.8083 34.575 41.425C34.1917 41.0417 34 40.5667 34 40C34 39.4333 34.1917 38.9583 34.575 38.575C34.9583 38.1917 35.4333 38 36 38C36.5667 38 37.0417 38.1917 37.425 38.575C37.8083 38.9583 38 39.4333 38 40C38 40.5667 37.8083 41.0417 37.425 41.425C37.0417 41.8083 36.5667 42 36 42Z" fill="#1C1B1F"/>
<path d="M11 47C10.4333 47 9.95833 46.8083 9.575 46.425C9.19167 46.0417 9 45.5667 9 45C9 44.4333 9.19167 43.9583 9.575 43.575C9.95833 43.1917 10.4333 43 11 43C11.5667 43 12.0417 43.1917 12.425 43.575C12.8083 43.9583 13 44.4333 13 45C13 45.5667 12.8083 46.0417 12.425 46.425C12.0417 46.8083 11.5667 47 11 47ZM23.5 47C22.9333 47 22.4583 46.8083 22.075 46.425C21.6917 46.0417 21.5 45.5667 21.5 45C21.5 44.4333 21.6917 43.9583 22.075 43.575C22.4583 43.1917 22.9333 43 23.5 43C24.0667 43 24.5417 43.1917 24.925 43.575C25.3083 43.9583 25.5 44.4333 25.5 45C25.5 45.5667 25.3083 46.0417 24.925 46.425C24.5417 46.8083 24.0667 47 23.5 47ZM36 47C35.4333 47 34.9583 46.8083 34.575 46.425C34.1917 46.0417 34 45.5667 34 45C34 44.4333 34.1917 43.9583 34.575 43.575C34.9583 43.1917 35.4333 43 36 43C36.5667 43 37.0417 43.1917 37.425 43.575C37.8083 43.9583 38 44.4333 38 45C38 45.5667 37.8083 46.0417 37.425 46.425C37.0417 46.8083 36.5667 47 36 47Z" fill="#1C1B1F"/>
</svg>
