<svg width="48" height="48" viewBox="0 0 48 48" fill="none" xmlns="http://www.w3.org/2000/svg">
<mask id="mask0_294_1033" style="mask-type:alpha" maskUnits="userSpaceOnUse" x="0" y="0" width="48" height="48">
<rect width="48" height="48" fill="#D9D9D9"/>
</mask>
<g mask="url(#mask0_294_1033)">
<path d="M14.5 31C11.6047 31 9.13083 29.9747 7.0785 27.924C5.02617 25.8733 4 23.4015 4 20.5085C4 17.8695 4.94167 15.5167 6.825 13.45C8.70833 11.3833 11.05 10.25 13.85 10.05C14.9167 8.18333 16.325 6.70833 18.075 5.625C19.825 4.54167 21.807 4 24.021 4C27.0403 4 29.575 4.95833 31.625 6.875C33.675 8.79167 34.9333 11.1667 35.4 14C38.0333 14.1333 40.125 15.025 41.675 16.675C43.225 18.325 44 20.2603 44 22.481C44 24.827 43.1737 26.8333 41.521 28.5C39.868 30.1667 37.861 31 35.5 31H14.5ZM14.5 28H35.5C37.04 28 38.3417 27.4583 39.405 26.375C40.4683 25.2917 41 23.9917 41 22.475C41 20.9583 40.4683 19.6667 39.405 18.6C38.3417 17.5333 37.04 17 35.5 17H32.5V15.5C32.5 13.1333 31.675 11.125 30.025 9.475C28.375 7.825 26.3702 7 24.0105 7C22.2945 7 20.7305 7.45833 19.3185 8.375C17.9062 9.29167 16.8667 10.5333 16.2 12.1L15.8 13H14.4C12.3333 13.0667 10.5833 13.8232 9.15 15.2695C7.71667 16.7162 7 18.4573 7 20.493C7 22.5643 7.73217 24.3333 9.1965 25.8C10.6608 27.2667 12.4287 28 14.5 28Z" fill="#1C1B1F"/>
</g>
<path d="M16.491 45C16.0637 45 15.7083 44.8553 15.425 44.566C15.1417 44.277 15 43.9187 15 43.491C15 43.0637 15.1447 42.7083 15.434 42.425C15.723 42.1417 16.0813 42 16.509 42C16.9363 42 17.2917 42.1447 17.575 42.434C17.8583 42.723 18 43.0813 18 43.509C18 43.9363 17.8553 44.2917 17.566 44.575C17.277 44.8583 16.9187 45 16.491 45ZM25.491 45C25.0637 45 24.7083 44.8553 24.425 44.566C24.1417 44.277 24 43.9187 24 43.491C24 43.0637 24.1447 42.7083 24.434 42.425C24.723 42.1417 25.0813 42 25.509 42C25.9363 42 26.2917 42.1447 26.575 42.434C26.8583 42.723 27 43.0813 27 43.509C27 43.9363 26.8553 44.2917 26.566 44.575C26.277 44.8583 25.9187 45 25.491 45ZM34.491 45C34.0637 45 33.7083 44.8553 33.425 44.566C33.1417 44.277 33 43.9187 33 43.491C33 43.0637 33.1447 42.7083 33.434 42.425C33.723 42.1417 34.0813 42 34.509 42C34.9363 42 35.2917 42.1447 35.575 42.434C35.8583 42.723 36 43.0813 36 43.509C36 43.9363 35.8553 44.2917 35.566 44.575C35.277 44.8583 34.9187 45 34.491 45ZM43.491 45C43.0637 45 42.7083 44.8553 42.425 44.566C42.1417 44.277 42 43.9187 42 43.491C42 43.0637 42.1447 42.7083 42.434 42.425C42.723 42.1417 43.0813 42 43.509 42C43.9363 42 44.2917 42.1447 44.575 42.434C44.8583 42.723 45 43.0813 45 43.509C45 43.9363 44.8553 44.2917 44.566 44.575C44.277 44.8583 43.9187 45 43.491 45ZM11.491 37C11.0637 37 10.7083 36.8553 10.425 36.566C10.1417 36.277 10 35.9187 10 35.491C10 35.0637 10.1447 34.7083 10.434 34.425C10.723 34.1417 11.0813 34 11.509 34C11.9363 34 12.2917 34.1447 12.575 34.434C12.8583 34.723 13 35.0813 13 35.509C13 35.9363 12.8553 36.2917 12.566 36.575C12.277 36.8583 11.9187 37 11.491 37ZM20.491 37C20.0637 37 19.7083 36.8553 19.425 36.566C19.1417 36.277 19 35.9187 19 35.491C19 35.0637 19.1447 34.7083 19.434 34.425C19.723 34.1417 20.0813 34 20.509 34C20.9363 34 21.2917 34.1447 21.575 34.434C21.8583 34.723 22 35.0813 22 35.509C22 35.9363 21.8553 36.2917 21.566 36.575C21.277 36.8583 20.9187 37 20.491 37ZM29.491 37C29.0637 37 28.7083 36.8553 28.425 36.566C28.1417 36.277 28 35.9187 28 35.491C28 35.0637 28.1447 34.7083 28.434 34.425C28.723 34.1417 29.0813 34 29.509 34C29.9363 34 30.2917 34.1447 30.575 34.434C30.8583 34.723 31 35.0813 31 35.509C31 35.9363 30.8553 36.2917 30.566 36.575C30.277 36.8583 29.9187 37 29.491 37ZM38.491 37C38.0637 37 37.7083 36.8553 37.425 36.566C37.1417 36.277 37 35.9187 37 35.491C37 35.0637 37.1447 34.7083 37.434 34.425C37.723 34.1417 38.0813 34 38.509 34C38.9363 34 39.2917 34.1447 39.575 34.434C39.8583 34.723 40 35.0813 40 35.509C40 35.9363 39.8553 36.2917 39.566 36.575C39.277 36.8583 38.9187 37 38.491 37Z" fill="#1C1B1F"/>
<path d="M13.916 41C13.4887 41 13.1333 40.8553 12.85 40.566C12.5667 40.277 12.425 39.9187 12.425 39.491C12.425 39.0637 12.5697 38.7083 12.859 38.425C13.148 38.1417 13.5063 38 13.934 38C14.3613 38 14.7167 38.1447 15 38.434C15.2833 38.723 15.425 39.0813 15.425 39.509C15.425 39.9363 15.2803 40.2917 14.991 40.575C14.702 40.8583 14.3437 41 13.916 41ZM22.916 41C22.4887 41 22.1333 40.8553 21.85 40.566C21.5667 40.277 21.425 39.9187 21.425 39.491C21.425 39.0637 21.5697 38.7083 21.859 38.425C22.148 38.1417 22.5063 38 22.934 38C23.3613 38 23.7167 38.1447 24 38.434C24.2833 38.723 24.425 39.0813 24.425 39.509C24.425 39.9363 24.2803 40.2917 23.991 40.575C23.702 40.8583 23.3437 41 22.916 41ZM31.916 41C31.4887 41 31.1333 40.8553 30.85 40.566C30.5667 40.277 30.425 39.9187 30.425 39.491C30.425 39.0637 30.5697 38.7083 30.859 38.425C31.148 38.1417 31.5063 38 31.934 38C32.3613 38 32.7167 38.1447 33 38.434C33.2833 38.723 33.425 39.0813 33.425 39.509C33.425 39.9363 33.2803 40.2917 32.991 40.575C32.702 40.8583 32.3437 41 31.916 41ZM40.916 41C40.4887 41 40.1333 40.8553 39.85 40.566C39.5667 40.277 39.425 39.9187 39.425 39.491C39.425 39.0637 39.5697 38.7083 39.859 38.425C40.148 38.1417 40.5063 38 40.934 38C41.3613 38 41.7167 38.1447 42 38.434C42.2833 38.723 42.425 39.0813 42.425 39.509C42.425 39.9363 42.2803 40.2917 41.991 40.575C41.702 40.8583 41.3437 41 40.916 41Z" fill="#1C1B1F"/>
</svg>
