<svg width="48" height="48" viewBox="0 0 48 48" fill="none" xmlns="http://www.w3.org/2000/svg">
<mask id="mask0_297_1074" style="mask-type:alpha" maskUnits="userSpaceOnUse" x="0" y="0" width="48" height="48">
<rect width="48" height="48" fill="#D9D9D9"/>
</mask>
<g mask="url(#mask0_297_1074)">
<path d="M11.5 31C8.60467 31 6.13083 29.9747 4.0785 27.924C2.02617 25.8733 1 23.4015 1 20.5085C1 17.8695 1.94167 15.5167 3.825 13.45C5.70833 11.3833 8.05 10.25 10.85 10.05C11.9167 8.18333 13.325 6.70833 15.075 5.625C16.825 4.54167 18.807 4 21.021 4C24.0403 4 26.575 4.95833 28.625 6.875C30.675 8.79167 31.9333 11.1667 32.4 14C34.9963 14.1315 37.066 15 38.6092 16.6057C38.6312 16.6287 38.6532 16.6518 38.675 16.675C38.675 16.675 35 19.7793 35 22C33 24 34.1527 24.3333 32.5 26C31.9917 26.5125 31.5752 28.1451 31 28.5C30.339 28.9079 35.5295 30.5127 34.7801 30.7124C34.0608 30.9041 33.3007 31 32.5 31H11.5ZM11.5 28H22H27.25H30C31.54 28 30.9367 26.5833 32 25.5C33.0633 24.4167 33.5 24.0167 33.5 22.5C33.5 21.224 37.6237 20.0823 36.871 19.1248C36.7291 18.9442 36.5737 18.7693 36.405 18.6C35.3417 17.5333 34.04 17 32.5 17H29.5V15.5C29.5 13.1333 28.675 11.125 27.025 9.475C25.375 7.825 23.3702 7 21.0105 7C19.2945 7 17.7305 7.45833 16.3185 8.375C14.9062 9.29167 13.8667 10.5333 13.2 12.1L12.8 13H11.4C9.33333 13.0667 7.58333 13.8232 6.15 15.2695C4.71667 16.7162 4 18.4573 4 20.493C4 22.5643 4.73217 24.3333 6.1965 25.8C7.66083 27.2667 9.42867 28 11.5 28Z" fill="#1C1B1F"/>
</g>
<path d="M28.8934 46.478C28.5296 46.6802 28.152 46.7125 27.7605 46.575C27.369 46.4375 27.0942 46.194 26.936 45.8446L25.9837 43.9403C25.8256 43.5909 25.8072 43.2232 25.9286 42.8372C26.05 42.4512 26.2927 42.1752 26.6565 42.0092C27.0203 41.8431 27.4065 41.8127 27.8149 41.918C28.2234 42.0232 28.5067 42.2505 28.6648 42.5999L29.6171 44.5042C29.7753 44.8536 29.7851 45.2194 29.6467 45.6015C29.508 45.9837 29.2569 46.2758 28.8934 46.478Z" fill="#1C1B1F"/>
<path d="M12.9263 36.8411C12.5603 37.0454 12.1773 37.0726 11.7773 36.9226C11.3773 36.7726 11.0939 36.5143 10.9273 36.1476L9.92727 34.1476C9.76061 33.7809 9.7356 33.3976 9.85227 32.9976C9.96894 32.5976 10.2106 32.3143 10.5773 32.1476C10.9439 31.9809 11.3356 31.9559 11.7523 32.0726C12.1689 32.1893 12.4606 32.4309 12.6273 32.7976L13.6273 34.7976C13.7939 35.1643 13.8103 35.5454 13.6763 35.9411C13.5419 36.3368 13.2919 36.6368 12.9263 36.8411Z" fill="#1C1B1F"/>
<path d="M40.9688 46.0448C40.6034 46.2436 40.2382 46.3009 39.8733 46.2167C39.5083 46.1325 39.2639 45.95 39.1399 45.6692L38.3777 44.146C38.2537 43.8652 38.2654 43.5579 38.4129 43.224C38.5603 42.8901 38.8153 42.6389 39.1779 42.4704C39.5405 42.3019 39.9137 42.2456 40.2974 42.3013C40.6812 42.3571 40.9351 42.5254 41.0591 42.8062L41.8213 44.3294C41.9453 44.6102 41.9256 44.9166 41.7621 45.2485C41.5984 45.5805 41.334 45.846 40.9688 46.0448Z" fill="#1C1B1F"/>
<path d="M38.8591 41.7899C38.4931 41.9942 38.1101 42.0214 37.7101 41.8714C37.3101 41.7214 37.0267 41.4631 36.8601 41.0964L35.8601 39.0964C35.6934 38.7297 35.6684 38.3464 35.7851 37.9464C35.9017 37.5464 36.1434 37.2631 36.5101 37.0964C36.8767 36.9297 37.2684 36.9047 37.6851 37.0214C38.1017 37.1381 38.3934 37.3797 38.5601 37.7464L39.5601 39.7464C39.7267 40.1131 39.7431 40.4942 39.6091 40.8899C39.4747 41.2856 39.2247 41.5856 38.8591 41.7899Z" fill="#1C1B1F"/>
<path d="M34.3971 32.8406C34.0311 33.0449 33.6481 33.0721 33.2481 32.9221C32.8481 32.7721 32.5647 32.5137 32.3981 32.1471L31.3981 30.1471C31.2314 29.7804 31.2064 29.3971 31.3231 28.9971C31.4397 28.5971 31.6814 28.3137 32.0481 28.1471C32.4147 27.9804 32.8064 27.9554 33.2231 28.0721C33.6397 28.1887 33.9314 28.4304 34.0981 28.7971L35.0981 30.7971C35.2647 31.1637 35.2811 31.5449 35.1471 31.9406C35.0127 32.3362 34.7627 32.6362 34.3971 32.8406Z" fill="#1C1B1F"/>
<path d="M24.3418 37.2641C23.9758 37.4684 23.5928 37.5039 23.1928 37.3706C22.7928 37.2372 22.5094 36.9872 22.3428 36.6206L19.3428 30.6206C19.1761 30.2539 19.1511 29.8622 19.2678 29.4456C19.3844 29.0289 19.6261 28.7372 19.9928 28.5706C20.3594 28.4039 20.7511 28.3789 21.1678 28.4956C21.5844 28.6122 21.8761 28.8539 22.0428 29.2206L25.0428 35.2206C25.2094 35.5872 25.2258 35.9684 25.0918 36.3641C24.9574 36.7597 24.7074 37.0597 24.3418 37.2641Z" fill="#1C1B1F"/>
<path d="M17.7253 46.459C17.3655 46.6608 16.9858 46.6902 16.5863 46.5472C16.1868 46.4042 15.9011 46.1442 15.7291 45.7674L12.644 39.5966C12.472 39.2198 12.4403 38.82 12.5487 38.3972C12.6572 37.9744 12.892 37.6813 13.2531 37.5179C13.6142 37.3545 14.0026 37.3359 14.4184 37.4622C14.8342 37.5886 15.128 37.8402 15.3 38.217L18.3851 44.3878C18.557 44.7646 18.58 45.1536 18.454 45.5546C18.3276 45.9557 18.0847 46.2571 17.7253 46.459Z" fill="#1C1B1F"/>
<path d="M25.5795 41.26C25.1522 41.26 24.7968 41.1153 24.5135 40.826C24.2302 40.537 24.0885 40.1787 24.0885 39.751C24.0885 39.3237 24.2332 38.9683 24.5225 38.685C24.8115 38.4017 25.1698 38.26 25.5975 38.26C26.0248 38.26 26.3802 38.4047 26.6635 38.694C26.9468 38.983 27.0885 39.3413 27.0885 39.769C27.0885 40.1963 26.9438 40.5517 26.6545 40.835C26.3655 41.1183 26.0072 41.26 25.5795 41.26Z" fill="#1C1B1F"/>
<path d="M35.4238 36.3518C34.9965 36.3518 34.6411 36.2071 34.3578 35.9178C34.0745 35.6288 33.9328 35.2705 33.9328 34.8428C33.9328 34.4155 34.0775 34.0601 34.3668 33.7768C34.6558 33.4935 35.0723 34.5 35.5 34.5C35.9273 34.5 36.2245 33.4965 36.5078 33.7858C36.7911 34.0748 36.9328 34.4331 36.9328 34.8608C36.9328 35.2881 36.7881 35.6435 36.4988 35.9268C36.2098 36.2102 35.8514 36.3518 35.4238 36.3518Z" fill="#1C1B1F"/>
<path d="M9.491 31.403C9.06366 31.403 8.70833 31.2584 8.425 30.969C8.14167 30.68 8 30.3217 8 29.894C8 29.4667 8.14467 29.1114 8.434 28.828C8.723 28.5447 9.08133 28.403 9.509 28.403C9.93633 28.403 10.2917 28.5477 10.575 28.837C10.8583 29.126 11 29.4844 11 29.912C11 30.3394 10.8553 30.6947 10.566 30.978C10.277 31.2614 9.91866 31.403 9.491 31.403Z" fill="#1C1B1F"/>
<path d="M35.5969 34.2625L42.3891 26.125H37.1391L38.0906 18.6766L32.0203 27.4375H36.5813L35.5969 34.2625ZM32.25 39.25L33.5625 30.0625H27L38.8125 13H41.4375L40.125 23.5H48L34.875 39.25H32.25Z" fill="#1C1B1F"/>
</svg>
