<svg width="48" height="48" viewBox="0 0 48 48" fill="none" xmlns="http://www.w3.org/2000/svg">
<mask id="mask0_275_1134" style="mask-type:alpha" maskUnits="userSpaceOnUse" x="0" y="0" width="48" height="48">
<rect width="48" height="48" fill="#D9D9D9"/>
</mask>
<g mask="url(#mask0_275_1134)">
<path d="M23.75 48L28.6 42.5L24.6 40.5L30.25 34H34.25L29.4 39.5L33.4 41.5L27.75 48H23.75ZM11.75 48L16.6 42.5L12.6 40.5L18.25 34H22.25L17.4 39.5L21.4 41.5L15.75 48H11.75ZM14.5 31C11.6047 31 9.13083 29.9747 7.0785 27.924C5.02617 25.8733 4 23.4015 4 20.5085C4 17.8695 4.94167 15.5167 6.825 13.45C8.70833 11.3833 11.05 10.25 13.85 10.05C14.9167 8.18333 16.325 6.70833 18.075 5.625C19.825 4.54167 21.807 4 24.021 4C27.0403 4 29.575 4.95833 31.625 6.875C33.675 8.79167 34.9333 11.1667 35.4 14C38.0333 14.1333 40.125 15.025 41.675 16.675C43.225 18.325 44 20.2603 44 22.481C44 24.827 43.1737 26.8333 41.521 28.5C39.868 30.1667 37.861 31 35.5 31H14.5ZM14.5 28H35.5C37.04 28 38.3417 27.4583 39.405 26.375C40.4683 25.2917 41 23.9917 41 22.475C41 20.9583 40.4683 19.6667 39.405 18.6C38.3417 17.5333 37.04 17 35.5 17H32.5V15.5C32.5 13.1333 31.675 11.125 30.025 9.475C28.375 7.825 26.3702 7 24.0105 7C22.2945 7 20.7305 7.45833 19.3185 8.375C17.9062 9.29167 16.8667 10.5333 16.2 12.1L15.8 13H14.4C12.3333 13.0667 10.5833 13.8232 9.15 15.2695C7.71667 16.7162 7 18.4573 7 20.493C7 22.5643 7.73217 24.3333 9.1965 25.8C10.6608 27.2667 12.4287 28 14.5 28Z" fill="#1C1B1F"/>
</g>
</svg>
